<svg xmlns="http://www.w3.org/2000/svg" viewBox="0 0 1600 900" width="1600" height="900" font-family="-apple-system,BlinkMacSystemFont,'Helvetica Neue',Inter,Arial,sans-serif"><defs><radialGradient id="bg" cx="62%" cy="20%" r="100%"><stop offset="0" stop-color="#10566f"/><stop offset="46%" stop-color="#0a2f40"/><stop offset="100%" stop-color="#072330"/></radialGradient><radialGradient id="halo" cx="50%" cy="50%" r="50%"><stop offset="0" stop-color="#86cdc7" stop-opacity="0.45"/><stop offset="100%" stop-color="#86cdc7" stop-opacity="0"/></radialGradient></defs><rect width="1600" height="900" fill="url(#bg)"/><line x1="0" y1="0" x2="0" y2="900" stroke="#ffffff" stroke-opacity="0.025"/><line x1="64" y1="0" x2="64" y2="900" stroke="#ffffff" stroke-opacity="0.025"/><line x1="128" y1="0" x2="128" y2="900" stroke="#ffffff" stroke-opacity="0.025"/><line x1="192" y1="0" x2="192" y2="900" stroke="#ffffff" stroke-opacity="0.025"/><line x1="256" y1="0" x2="256" y2="900" stroke="#ffffff" stroke-opacity="0.025"/><line x1="320" y1="0" x2="320" y2="900" stroke="#ffffff" stroke-opacity="0.025"/><line x1="384" y1="0" x2="384" y2="900" stroke="#ffffff" stroke-opacity="0.025"/><line x1="448" y1="0" x2="448" y2="900" stroke="#ffffff" stroke-opacity="0.025"/><line x1="512" y1="0" x2="512" y2="900" stroke="#ffffff" stroke-opacity="0.025"/><line x1="576" y1="0" x2="576" y2="900" stroke="#ffffff" stroke-opacity="0.025"/><line x1="640" y1="0" x2="640" y2="900" stroke="#ffffff" stroke-opacity="0.025"/><line x1="704" y1="0" x2="704" y2="900" stroke="#ffffff" stroke-opacity="0.025"/><line x1="768" y1="0" x2="768" y2="900" stroke="#ffffff" stroke-opacity="0.025"/><line x1="832" y1="0" x2="832" y2="900" stroke="#ffffff" stroke-opacity="0.025"/><line x1="896" y1="0" x2="896" y2="900" stroke="#ffffff" stroke-opacity="0.025"/><line x1="960" y1="0" x2="960" y2="900" stroke="#ffffff" stroke-opacity="0.025"/><line x1="1024" y1="0" x2="1024" y2="900" stroke="#ffffff" stroke-opacity="0.025"/><line x1="1088" y1="0" x2="1088" y2="900" stroke="#ffffff" stroke-opacity="0.025"/><line x1="1152" y1="0" x2="1152" y2="900" stroke="#ffffff" stroke-opacity="0.025"/><line x1="1216" y1="0" x2="1216" y2="900" stroke="#ffffff" stroke-opacity="0.025"/><line x1="1280" y1="0" x2="1280" y2="900" stroke="#ffffff" stroke-opacity="0.025"/><line x1="1344" y1="0" x2="1344" y2="900" stroke="#ffffff" stroke-opacity="0.025"/><line x1="1408" y1="0" x2="1408" y2="900" stroke="#ffffff" stroke-opacity="0.025"/><line x1="1472" y1="0" x2="1472" y2="900" stroke="#ffffff" stroke-opacity="0.025"/><line x1="1536" y1="0" x2="1536" y2="900" stroke="#ffffff" stroke-opacity="0.025"/><line x1="1600" y1="0" x2="1600" y2="900" stroke="#ffffff" stroke-opacity="0.025"/><line x1="0" y1="0" x2="1600" y2="0" stroke="#ffffff" stroke-opacity="0.025"/><line x1="0" y1="64" x2="1600" y2="64" stroke="#ffffff" stroke-opacity="0.025"/><line x1="0" y1="128" x2="1600" y2="128" stroke="#ffffff" stroke-opacity="0.025"/><line x1="0" y1="192" x2="1600" y2="192" stroke="#ffffff" stroke-opacity="0.025"/><line x1="0" y1="256" x2="1600" y2="256" stroke="#ffffff" stroke-opacity="0.025"/><line x1="0" y1="320" x2="1600" y2="320" stroke="#ffffff" stroke-opacity="0.025"/><line x1="0" y1="384" x2="1600" y2="384" stroke="#ffffff" stroke-opacity="0.025"/><line x1="0" y1="448" x2="1600" y2="448" stroke="#ffffff" stroke-opacity="0.025"/><line x1="0" y1="512" x2="1600" y2="512" stroke="#ffffff" stroke-opacity="0.025"/><line x1="0" y1="576" x2="1600" y2="576" stroke="#ffffff" stroke-opacity="0.025"/><line x1="0" y1="640" x2="1600" y2="640" stroke="#ffffff" stroke-opacity="0.025"/><line x1="0" y1="704" x2="1600" y2="704" stroke="#ffffff" stroke-opacity="0.025"/><line x1="0" y1="768" x2="1600" y2="768" stroke="#ffffff" stroke-opacity="0.025"/><line x1="0" y1="832" x2="1600" y2="832" stroke="#ffffff" stroke-opacity="0.025"/><line x1="0" y1="896" x2="1600" y2="896" stroke="#ffffff" stroke-opacity="0.025"/><line x1="744" y1="489" x2="801" y2="717" stroke="#86cdc7" stroke-opacity="0.11" stroke-width="1.4"/><line x1="744" y1="489" x2="603" y2="304" stroke="#86cdc7" stroke-opacity="0.11" stroke-width="1.4"/><line x1="744" y1="489" x2="984" y2="561" stroke="#86cdc7" stroke-opacity="0.08" stroke-width="1.4"/><line x1="1367" y1="765" x2="1221" y2="535" stroke="#86cdc7" stroke-opacity="0.06" stroke-width="1.4"/><line x1="1330" y1="177" x2="1370" y2="365" stroke="#86cdc7" stroke-opacity="0.18" stroke-width="1.4"/><line x1="1330" y1="177" x2="1131" y2="161" stroke="#86cdc7" stroke-opacity="0.17" stroke-width="1.4"/><line x1="257" y1="160" x2="226" y2="449" stroke="#86cdc7" stroke-opacity="0.06" stroke-width="1.4"/><line x1="257" y1="160" x2="473" y2="171" stroke="#86cdc7" stroke-opacity="0.14" stroke-width="1.4"/><line x1="269" y1="745" x2="537" y2="740" stroke="#86cdc7" stroke-opacity="0.06" stroke-width="1.4"/><line x1="269" y1="745" x2="226" y2="449" stroke="#86cdc7" stroke-opacity="0.06" stroke-width="1.4"/><line x1="269" y1="745" x2="362" y2="584" stroke="#86cdc7" stroke-opacity="0.19" stroke-width="1.4"/><line x1="696" y1="130" x2="964" y2="135" stroke="#86cdc7" stroke-opacity="0.06" stroke-width="1.4"/><line x1="696" y1="130" x2="473" y2="171" stroke="#86cdc7" stroke-opacity="0.12" stroke-width="1.4"/><line x1="696" y1="130" x2="603" y2="304" stroke="#86cdc7" stroke-opacity="0.17" stroke-width="1.4"/><line x1="1031" y1="739" x2="1221" y2="535" stroke="#86cdc7" stroke-opacity="0.06" stroke-width="1.4"/><line x1="1031" y1="739" x2="801" y2="717" stroke="#86cdc7" stroke-opacity="0.11" stroke-width="1.4"/><line x1="1031" y1="739" x2="984" y2="561" stroke="#86cdc7" stroke-opacity="0.19" stroke-width="1.4"/><line x1="1026" y1="359" x2="1221" y2="535" stroke="#86cdc7" stroke-opacity="0.06" stroke-width="1.4"/><line x1="1026" y1="359" x2="964" y2="135" stroke="#86cdc7" stroke-opacity="0.11" stroke-width="1.4"/><line x1="1026" y1="359" x2="984" y2="561" stroke="#86cdc7" stroke-opacity="0.16" stroke-width="1.4"/><line x1="1026" y1="359" x2="1131" y2="161" stroke="#86cdc7" stroke-opacity="0.13" stroke-width="1.4"/><line x1="429" y1="430" x2="226" y2="449" stroke="#86cdc7" stroke-opacity="0.16" stroke-width="1.4"/><line x1="429" y1="430" x2="473" y2="171" stroke="#86cdc7" stroke-opacity="0.06" stroke-width="1.4"/><line x1="429" y1="430" x2="603" y2="304" stroke="#86cdc7" stroke-opacity="0.14" stroke-width="1.4"/><line x1="429" y1="430" x2="362" y2="584" stroke="#86cdc7" stroke-opacity="0.22" stroke-width="1.4"/><line x1="537" y1="740" x2="801" y2="717" stroke="#86cdc7" stroke-opacity="0.06" stroke-width="1.4"/><line x1="537" y1="740" x2="362" y2="584" stroke="#86cdc7" stroke-opacity="0.11" stroke-width="1.4"/><line x1="1221" y1="535" x2="984" y2="561" stroke="#86cdc7" stroke-opacity="0.10" stroke-width="1.4"/><line x1="1221" y1="535" x2="1370" y2="365" stroke="#86cdc7" stroke-opacity="0.12" stroke-width="1.4"/><line x1="801" y1="717" x2="984" y2="561" stroke="#86cdc7" stroke-opacity="0.10" stroke-width="1.4"/><line x1="964" y1="135" x2="1131" y2="161" stroke="#86cdc7" stroke-opacity="0.22" stroke-width="1.4"/><line x1="226" y1="449" x2="362" y2="584" stroke="#86cdc7" stroke-opacity="0.18" stroke-width="1.4"/><line x1="473" y1="171" x2="603" y2="304" stroke="#86cdc7" stroke-opacity="0.19" stroke-width="1.4"/><line x1="1367" y1="765" x2="1031" y2="739" stroke="#86cdc7" stroke-opacity="0.06" stroke-width="1.4"/><circle cx="744" cy="489" r="28" fill="url(#halo)"/><circle cx="744" cy="489" r="5" fill="#cdf2ec"/><text x="744" y="516" text-anchor="middle" font-size="20" font-weight="500" fill="#dbeeeb" opacity="0.95">BIM</text><circle cx="1367" cy="765" r="28" fill="url(#halo)"/><circle cx="1367" cy="765" r="6" fill="#cdf2ec"/><text x="1367" y="793" text-anchor="middle" font-size="20" font-weight="500" fill="#dbeeeb" opacity="0.95">IFC</text><circle cx="1330" cy="177" r="28" fill="url(#halo)"/><circle cx="1330" cy="177" r="7" fill="#cdf2ec"/><text x="1330" y="206" text-anchor="middle" font-size="20" font-weight="500" fill="#dbeeeb" opacity="0.95">Digital Twins</text><circle cx="257" cy="160" r="28" fill="url(#halo)"/><circle cx="257" cy="160" r="7" fill="#cdf2ec"/><text x="257" y="189" text-anchor="middle" font-size="20" font-weight="500" fill="#dbeeeb" opacity="0.95">Digital Building Logbooks</text><circle cx="269" cy="745" r="28" fill="url(#halo)"/><circle cx="269" cy="745" r="7" fill="#cdf2ec"/><text x="269" y="774" text-anchor="middle" font-size="20" font-weight="500" fill="#dbeeeb" opacity="0.95">Digital Product Passports</text><circle cx="696" cy="130" r="28" fill="url(#halo)"/><circle cx="696" cy="130" r="6" fill="#cdf2ec"/><text x="696" y="158" text-anchor="middle" font-size="20" font-weight="500" fill="#dbeeeb" opacity="0.95">IoT</text><circle cx="1031" cy="739" r="28" fill="url(#halo)"/><circle cx="1031" cy="739" r="6" fill="#cdf2ec"/><text x="1031" y="767" text-anchor="middle" font-size="20" font-weight="500" fill="#dbeeeb" opacity="0.95">Material Passports</text><circle cx="1026" cy="359" r="28" fill="url(#halo)"/><circle cx="1026" cy="359" r="5" fill="#cdf2ec"/><text x="1026" y="386" text-anchor="middle" font-size="20" font-weight="500" fill="#dbeeeb" opacity="0.95">ESPR</text><circle cx="429" cy="430" r="28" fill="url(#halo)"/><circle cx="429" cy="430" r="7" fill="#cdf2ec"/><text x="429" y="459" text-anchor="middle" font-size="20" font-weight="500" fill="#dbeeeb" opacity="0.95">CPR</text><circle cx="537" cy="740" r="28" fill="url(#halo)"/><circle cx="537" cy="740" r="7" fill="#cdf2ec"/><text x="537" y="769" text-anchor="middle" font-size="20" font-weight="500" fill="#dbeeeb" opacity="0.95">ISO 19650</text><circle cx="1221" cy="535" r="28" fill="url(#halo)"/><circle cx="1221" cy="535" r="6" fill="#cdf2ec"/><text x="1221" y="563" text-anchor="middle" font-size="20" font-weight="500" fill="#dbeeeb" opacity="0.95">Working Groups</text><circle cx="801" cy="717" r="28" fill="url(#halo)"/><circle cx="801" cy="717" r="6" fill="#cdf2ec"/><text x="801" y="745" text-anchor="middle" font-size="20" font-weight="500" fill="#dbeeeb" opacity="0.95">Ontologies</text><circle cx="964" cy="135" r="28" fill="url(#halo)"/><circle cx="964" cy="135" r="6" fill="#cdf2ec"/><text x="964" y="163" text-anchor="middle" font-size="20" font-weight="500" fill="#dbeeeb" opacity="0.95">Linked Data</text><circle cx="226" cy="449" r="28" fill="url(#halo)"/><circle cx="226" cy="449" r="6" fill="#cdf2ec"/><text x="226" y="477" text-anchor="middle" font-size="20" font-weight="500" fill="#dbeeeb" opacity="0.95">Research Projects</text><circle cx="473" cy="171" r="28" fill="url(#halo)"/><circle cx="473" cy="171" r="5" fill="#cdf2ec"/><text x="473" y="198" text-anchor="middle" font-size="20" font-weight="500" fill="#dbeeeb" opacity="0.95">Regulations</text><circle cx="603" cy="304" r="28" fill="url(#halo)"/><circle cx="603" cy="304" r="6" fill="#cdf2ec"/><text x="603" y="332" text-anchor="middle" font-size="20" font-weight="500" fill="#dbeeeb" opacity="0.95">Standards</text><circle cx="984" cy="561" r="28" fill="url(#halo)"/><circle cx="984" cy="561" r="6" fill="#cdf2ec"/><text x="984" y="589" text-anchor="middle" font-size="20" font-weight="500" fill="#dbeeeb" opacity="0.95">Asset Data</text><circle cx="1370" cy="365" r="28" fill="url(#halo)"/><circle cx="1370" cy="365" r="5" fill="#cdf2ec"/><text x="1370" y="392" text-anchor="middle" font-size="20" font-weight="500" fill="#dbeeeb" opacity="0.95">Geospatial</text><circle cx="1131" cy="161" r="28" fill="url(#halo)"/><circle cx="1131" cy="161" r="6" fill="#cdf2ec"/><text x="1131" y="189" text-anchor="middle" font-size="20" font-weight="500" fill="#dbeeeb" opacity="0.95">Open Data</text><circle cx="362" cy="584" r="28" fill="url(#halo)"/><circle cx="362" cy="584" r="5" fill="#cdf2ec"/><text x="362" y="611" text-anchor="middle" font-size="20" font-weight="500" fill="#dbeeeb" opacity="0.95">Interoperability</text></svg>